<?xml version="1.0" encoding="UTF-8" standalone="no"?>
<!-- Created with Inkscape (http://www.inkscape.org/) -->

<svg
   xmlns:dc="http://purl.org/dc/elements/1.1/"
   xmlns:cc="http://creativecommons.org/ns#"
   xmlns:rdf="http://www.w3.org/1999/02/22-rdf-syntax-ns#"
   xmlns:svg="http://www.w3.org/2000/svg"
   xmlns="http://www.w3.org/2000/svg"
   xmlns:sodipodi="http://sodipodi.sourceforge.net/DTD/sodipodi-0.dtd"
   xmlns:inkscape="http://www.inkscape.org/namespaces/inkscape"
   id="svg3336"
   version="1.1"
   inkscape:version="0.91 r13725"
   width="32"
   height="32"
   viewBox="0 0 32 32"
   sodipodi:docname="amos_logo.svg">
  <metadata
     id="metadata3342">
    <rdf:RDF>
      <cc:Work
         rdf:about="">
        <dc:format>image/svg+xml</dc:format>
        <dc:type
           rdf:resource="http://purl.org/dc/dcmitype/StillImage" />
        <dc:title />
      </cc:Work>
    </rdf:RDF>
  </metadata>
  <defs
     id="defs3340" />
  <sodipodi:namedview
     pagecolor="#ffffff"
     bordercolor="#666666"
     borderopacity="1"
     objecttolerance="10"
     gridtolerance="10"
     guidetolerance="10"
     inkscape:pageopacity="0"
     inkscape:pageshadow="2"
     inkscape:window-width="1600"
     inkscape:window-height="1138"
     id="namedview3338"
     showgrid="false"
     inkscape:zoom="5.1872912"
     inkscape:cx="-22.811537"
     inkscape:cy="41.40038"
     inkscape:window-x="-8"
     inkscape:window-y="-8"
     inkscape:window-maximized="1"
     inkscape:current-layer="svg3336" />
  <g
     id="g4136"
     transform="translate(-36.520778,-0.30142146)">
    <path
       sodipodi:nodetypes="sssscsssssssssssss"
       inkscape:connector-curvature="0"
       id="path3350-3"
       d="m 53.342701,2.0160532 c -0.90066,-0.07237 -1.80829,0.217319 -2.68164,0.810547 -1.74672,1.186455 -3.44129,3.560151 -5.22852,7.1367185 -2.04677,4.0959533 -3.54496,8.2297133 -4.31836,11.6308603 -0.3867,1.700573 -0.59408,3.217151 -0.58984,4.472656 0.004,1.255505 0.32032,2.286087 0.7958,3.034416 0.36588,0.575851 0.67174,0.801939 1.1382,1.086879 0.46645,0.28494 1.14801,0.471762 1.72225,0.390424 1.14847,-0.162676 2.42912,-0.967998 4.58594,-2.433594 2.27884,-1.548516 3.40808,-2.232803 4.32617,-2.216797 0.91809,0.01601 1.96881,0.734139 4.09961,2.359375 1.20324,0.917755 2.24762,1.540979 3.18359,1.857422 0.93597,0.316443 1.81079,0.316122 2.50391,-0.109375 0.69312,-0.425497 1.12605,-1.205112 1.3789,-2.232422 0.25286,-1.02731 0.385685,-2.864015 0.08847,-4.720334 C 63.924477,20.442727 63.08426,16.831823 61.36223,12.715272 59.6402,8.5987212 57.62013,4.7960012 55.89934,3.2387092 55.10291,2.5179532 54.24336,2.0884192 53.3427,2.0160532 Z"
       style="color:#000000;font-style:normal;font-variant:normal;font-weight:normal;font-stretch:normal;font-size:medium;line-height:normal;font-family:sans-serif;text-indent:0;text-align:start;text-decoration:none;text-decoration-line:none;text-decoration-style:solid;text-decoration-color:#000000;letter-spacing:normal;word-spacing:normal;text-transform:none;direction:ltr;block-progression:tb;writing-mode:lr-tb;baseline-shift:baseline;text-anchor:start;white-space:normal;clip-rule:nonzero;display:inline;overflow:visible;visibility:visible;opacity:1;isolation:auto;mix-blend-mode:normal;color-interpolation:sRGB;color-interpolation-filters:linearRGB;solid-color:#000000;solid-opacity:1;fill:#cc0000;fill-opacity:0.99701496;fill-rule:nonzero;stroke:none;stroke-width:1;stroke-linecap:butt;stroke-linejoin:miter;stroke-miterlimit:4;stroke-dasharray:none;stroke-dashoffset:0;stroke-opacity:1;color-rendering:auto;image-rendering:auto;shape-rendering:auto;text-rendering:auto;enable-background:accumulate" />
    <rect
       transform="matrix(0,-1,-1,0,0,0)"
       y="-58.066235"
       x="-24.076431"
       height="3.2604566"
       width="10.852736"
       id="rect3354-5-8"
       style="opacity:1;fill:#ffffff;fill-opacity:1;stroke:none;stroke-width:0.80000001;stroke-miterlimit:4;stroke-dasharray:none;stroke-opacity:1" />
    <rect
       transform="scale(1,-1)"
       y="-20.280293"
       x="51.009636"
       height="3.2604566"
       width="10.852736"
       id="rect3354-5-8-7"
       style="opacity:1;fill:#ffffff;fill-opacity:1;stroke:none;stroke-width:0.80000001;stroke-miterlimit:4;stroke-dasharray:none;stroke-opacity:1" />
  </g>
</svg>
